<mxfile host="app.diagrams.net" agent="Mozilla/5.0 (Windows NT 10.0; Win64; x64) AppleWebKit/537.36 (KHTML, like Gecko) Chrome/129.0.0.0 Safari/537.36" version="24.7.17">
  <diagram name="1 oldal" id="Mq_ue1Z6_9MkitTqfTg_">
    <mxGraphModel dx="2027" dy="1977" grid="1" gridSize="10" guides="1" tooltips="1" connect="1" arrows="1" fold="1" page="1" pageScale="1" pageWidth="850" pageHeight="1100" math="0" shadow="0">
      <root>
        <mxCell id="0" />
        <mxCell id="1" parent="0" />
        <mxCell id="ksmvPKxuGHWu2tee51oc-400" value="start" style="ellipse;whiteSpace=wrap;html=1;" vertex="1" parent="1">
          <mxGeometry x="590" y="530" width="120" height="80" as="geometry" />
        </mxCell>
        <mxCell id="ksmvPKxuGHWu2tee51oc-401" value="&lt;b&gt;Be: T[]&lt;/b&gt;" style="shape=parallelogram;perimeter=parallelogramPerimeter;whiteSpace=wrap;html=1;fixedSize=1;" vertex="1" parent="1">
          <mxGeometry x="590" y="640" width="120" height="60" as="geometry" />
        </mxCell>
        <mxCell id="ksmvPKxuGHWu2tee51oc-402" value="" style="endArrow=classic;html=1;rounded=0;fontSize=12;startSize=8;endSize=8;curved=1;exitX=0.5;exitY=1;exitDx=0;exitDy=0;" edge="1" parent="1" source="ksmvPKxuGHWu2tee51oc-400" target="ksmvPKxuGHWu2tee51oc-401">
          <mxGeometry width="50" height="50" relative="1" as="geometry">
            <mxPoint x="676.25" y="1040" as="sourcePoint" />
            <mxPoint x="726.25" y="990" as="targetPoint" />
          </mxGeometry>
        </mxCell>
        <mxCell id="ksmvPKxuGHWu2tee51oc-403" value="" style="edgeStyle=none;curved=1;rounded=0;orthogonalLoop=1;jettySize=auto;html=1;fontSize=12;startSize=8;endSize=8;exitX=0;exitY=0.5;exitDx=0;exitDy=0;" edge="1" parent="1" source="ksmvPKxuGHWu2tee51oc-430" target="ksmvPKxuGHWu2tee51oc-405">
          <mxGeometry relative="1" as="geometry">
            <mxPoint x="550" y="1055" as="sourcePoint" />
          </mxGeometry>
        </mxCell>
        <mxCell id="ksmvPKxuGHWu2tee51oc-404" value="" style="edgeStyle=none;curved=1;rounded=0;orthogonalLoop=1;jettySize=auto;html=1;fontSize=12;startSize=8;endSize=8;" edge="1" parent="1" source="ksmvPKxuGHWu2tee51oc-405" target="ksmvPKxuGHWu2tee51oc-406">
          <mxGeometry relative="1" as="geometry" />
        </mxCell>
        <mxCell id="ksmvPKxuGHWu2tee51oc-405" value="ki: T[]" style="shape=parallelogram;perimeter=parallelogramPerimeter;whiteSpace=wrap;html=1;fixedSize=1;" vertex="1" parent="1">
          <mxGeometry x="400" y="1030" width="120" height="60" as="geometry" />
        </mxCell>
        <mxCell id="ksmvPKxuGHWu2tee51oc-406" value="stop" style="ellipse;whiteSpace=wrap;html=1;" vertex="1" parent="1">
          <mxGeometry x="270" y="1020" width="105" height="80" as="geometry" />
        </mxCell>
        <mxCell id="ksmvPKxuGHWu2tee51oc-407" value="I" style="text;html=1;align=center;verticalAlign=middle;whiteSpace=wrap;rounded=0;fontSize=16;" vertex="1" parent="1">
          <mxGeometry x="550" y="1000" width="60" height="30" as="geometry" />
        </mxCell>
        <mxCell id="ksmvPKxuGHWu2tee51oc-408" value="j = 0" style="whiteSpace=wrap;html=1;" vertex="1" parent="1">
          <mxGeometry x="770" y="1030" width="120" height="60" as="geometry" />
        </mxCell>
        <mxCell id="ksmvPKxuGHWu2tee51oc-409" value="" style="edgeStyle=none;curved=1;rounded=0;orthogonalLoop=1;jettySize=auto;html=1;fontSize=12;startSize=8;endSize=8;exitX=1;exitY=0.5;exitDx=0;exitDy=0;" edge="1" parent="1" source="ksmvPKxuGHWu2tee51oc-433" target="ksmvPKxuGHWu2tee51oc-412">
          <mxGeometry relative="1" as="geometry">
            <mxPoint x="1079.0476190476188" y="1061.5136054421769" as="sourcePoint" />
          </mxGeometry>
        </mxCell>
        <mxCell id="ksmvPKxuGHWu2tee51oc-410" value="I" style="text;html=1;align=center;verticalAlign=middle;whiteSpace=wrap;rounded=0;fontSize=16;" vertex="1" parent="1">
          <mxGeometry x="930" y="1100" width="60" height="30" as="geometry" />
        </mxCell>
        <mxCell id="ksmvPKxuGHWu2tee51oc-411" value="" style="edgeStyle=none;curved=1;rounded=0;orthogonalLoop=1;jettySize=auto;html=1;fontSize=12;startSize=8;endSize=8;" edge="1" parent="1" source="ksmvPKxuGHWu2tee51oc-412" target="ksmvPKxuGHWu2tee51oc-414">
          <mxGeometry relative="1" as="geometry" />
        </mxCell>
        <mxCell id="ksmvPKxuGHWu2tee51oc-412" value="Ha&lt;br&gt;T[j] &amp;gt; T[j + 1]" style="rhombus;whiteSpace=wrap;html=1;" vertex="1" parent="1">
          <mxGeometry x="1115" y="990" width="140" height="140" as="geometry" />
        </mxCell>
        <mxCell id="ksmvPKxuGHWu2tee51oc-413" value="" style="edgeStyle=none;curved=1;rounded=0;orthogonalLoop=1;jettySize=auto;html=1;fontSize=12;startSize=8;endSize=8;" edge="1" parent="1" source="ksmvPKxuGHWu2tee51oc-414" target="ksmvPKxuGHWu2tee51oc-416">
          <mxGeometry relative="1" as="geometry" />
        </mxCell>
        <mxCell id="ksmvPKxuGHWu2tee51oc-414" value="tmp = T[j]" style="whiteSpace=wrap;html=1;" vertex="1" parent="1">
          <mxGeometry x="1125" y="910" width="120" height="60" as="geometry" />
        </mxCell>
        <mxCell id="ksmvPKxuGHWu2tee51oc-415" value="" style="edgeStyle=none;curved=1;rounded=0;orthogonalLoop=1;jettySize=auto;html=1;fontSize=12;startSize=8;endSize=8;" edge="1" parent="1" source="ksmvPKxuGHWu2tee51oc-416" target="ksmvPKxuGHWu2tee51oc-417">
          <mxGeometry relative="1" as="geometry" />
        </mxCell>
        <mxCell id="ksmvPKxuGHWu2tee51oc-416" value="T[j] = T[j + 1]" style="whiteSpace=wrap;html=1;" vertex="1" parent="1">
          <mxGeometry x="1125" y="800" width="120" height="60" as="geometry" />
        </mxCell>
        <mxCell id="ksmvPKxuGHWu2tee51oc-417" value="T[j + 1] = tmp" style="whiteSpace=wrap;html=1;" vertex="1" parent="1">
          <mxGeometry x="1125" y="689" width="120" height="60" as="geometry" />
        </mxCell>
        <mxCell id="ksmvPKxuGHWu2tee51oc-418" value="" style="endArrow=none;html=1;rounded=0;fontSize=12;startSize=8;endSize=8;curved=1;entryX=1;entryY=0.5;entryDx=0;entryDy=0;" edge="1" parent="1" target="ksmvPKxuGHWu2tee51oc-412">
          <mxGeometry width="50" height="50" relative="1" as="geometry">
            <mxPoint x="1320" y="1060" as="sourcePoint" />
            <mxPoint x="1060" y="960" as="targetPoint" />
          </mxGeometry>
        </mxCell>
        <mxCell id="ksmvPKxuGHWu2tee51oc-419" value="" style="endArrow=none;html=1;rounded=0;fontSize=12;startSize=8;endSize=8;curved=1;" edge="1" parent="1">
          <mxGeometry width="50" height="50" relative="1" as="geometry">
            <mxPoint x="1320" y="650" as="sourcePoint" />
            <mxPoint x="1320" y="1060" as="targetPoint" />
          </mxGeometry>
        </mxCell>
        <mxCell id="ksmvPKxuGHWu2tee51oc-420" value="" style="endArrow=none;html=1;rounded=0;fontSize=12;startSize=8;endSize=8;curved=1;" edge="1" parent="1">
          <mxGeometry width="50" height="50" relative="1" as="geometry">
            <mxPoint x="1010" y="650" as="sourcePoint" />
            <mxPoint x="1320" y="650" as="targetPoint" />
          </mxGeometry>
        </mxCell>
        <mxCell id="ksmvPKxuGHWu2tee51oc-421" value="" style="endArrow=classic;html=1;rounded=0;fontSize=12;startSize=8;endSize=8;curved=1;exitX=0.5;exitY=0;exitDx=0;exitDy=0;" edge="1" parent="1" source="ksmvPKxuGHWu2tee51oc-417">
          <mxGeometry width="50" height="50" relative="1" as="geometry">
            <mxPoint x="1185" y="689" as="sourcePoint" />
            <mxPoint x="1185" y="650" as="targetPoint" />
          </mxGeometry>
        </mxCell>
        <mxCell id="ksmvPKxuGHWu2tee51oc-422" value="H" style="text;html=1;align=center;verticalAlign=middle;whiteSpace=wrap;rounded=0;fontSize=16;" vertex="1" parent="1">
          <mxGeometry x="1030" y="990" width="60" height="30" as="geometry" />
        </mxCell>
        <mxCell id="ksmvPKxuGHWu2tee51oc-423" value="I" style="text;html=1;align=center;verticalAlign=middle;whiteSpace=wrap;rounded=0;fontSize=16;" vertex="1" parent="1">
          <mxGeometry x="1100" y="990" width="60" height="30" as="geometry" />
        </mxCell>
        <mxCell id="ksmvPKxuGHWu2tee51oc-424" value="H" style="text;html=1;align=center;verticalAlign=middle;whiteSpace=wrap;rounded=0;fontSize=16;" vertex="1" parent="1">
          <mxGeometry x="1210" y="990" width="60" height="30" as="geometry" />
        </mxCell>
        <mxCell id="ksmvPKxuGHWu2tee51oc-425" value="H" style="text;html=1;align=center;verticalAlign=middle;whiteSpace=wrap;rounded=0;fontSize=16;" vertex="1" parent="1">
          <mxGeometry x="690" y="1000" width="60" height="30" as="geometry" />
        </mxCell>
        <mxCell id="ksmvPKxuGHWu2tee51oc-426" value="" style="edgeStyle=orthogonalEdgeStyle;rounded=0;orthogonalLoop=1;jettySize=auto;html=1;" edge="1" parent="1" source="ksmvPKxuGHWu2tee51oc-427" target="ksmvPKxuGHWu2tee51oc-429">
          <mxGeometry relative="1" as="geometry" />
        </mxCell>
        <mxCell id="ksmvPKxuGHWu2tee51oc-427" value="n = T[].hossza" style="rounded=0;whiteSpace=wrap;html=1;" vertex="1" parent="1">
          <mxGeometry x="590" y="730" width="120" height="60" as="geometry" />
        </mxCell>
        <mxCell id="ksmvPKxuGHWu2tee51oc-428" value="" style="endArrow=classic;html=1;rounded=0;" edge="1" parent="1" source="ksmvPKxuGHWu2tee51oc-401" target="ksmvPKxuGHWu2tee51oc-427">
          <mxGeometry width="50" height="50" relative="1" as="geometry">
            <mxPoint x="636.25" y="910" as="sourcePoint" />
            <mxPoint x="686.25" y="860" as="targetPoint" />
          </mxGeometry>
        </mxCell>
        <mxCell id="ksmvPKxuGHWu2tee51oc-429" value="i = 0" style="rounded=0;whiteSpace=wrap;html=1;" vertex="1" parent="1">
          <mxGeometry x="590" y="820" width="120" height="60" as="geometry" />
        </mxCell>
        <mxCell id="ksmvPKxuGHWu2tee51oc-430" value="i &amp;lt; 0" style="rhombus;whiteSpace=wrap;html=1;" vertex="1" parent="1">
          <mxGeometry x="580" y="990" width="140" height="140" as="geometry" />
        </mxCell>
        <mxCell id="ksmvPKxuGHWu2tee51oc-431" value="" style="endArrow=classic;html=1;rounded=0;entryX=0.5;entryY=0;entryDx=0;entryDy=0;" edge="1" parent="1" source="ksmvPKxuGHWu2tee51oc-429" target="ksmvPKxuGHWu2tee51oc-430">
          <mxGeometry width="50" height="50" relative="1" as="geometry">
            <mxPoint x="710" y="880" as="sourcePoint" />
            <mxPoint x="760" y="830" as="targetPoint" />
          </mxGeometry>
        </mxCell>
        <mxCell id="ksmvPKxuGHWu2tee51oc-432" value="" style="endArrow=classic;html=1;rounded=0;" edge="1" parent="1" source="ksmvPKxuGHWu2tee51oc-430" target="ksmvPKxuGHWu2tee51oc-408">
          <mxGeometry width="50" height="50" relative="1" as="geometry">
            <mxPoint x="660" y="990" as="sourcePoint" />
            <mxPoint x="710" y="940" as="targetPoint" />
          </mxGeometry>
        </mxCell>
        <mxCell id="ksmvPKxuGHWu2tee51oc-433" value="j == i" style="rhombus;whiteSpace=wrap;html=1;" vertex="1" parent="1">
          <mxGeometry x="940" y="990" width="140" height="140" as="geometry" />
        </mxCell>
        <mxCell id="ksmvPKxuGHWu2tee51oc-434" value="" style="endArrow=classic;html=1;rounded=0;" edge="1" parent="1" source="ksmvPKxuGHWu2tee51oc-408" target="ksmvPKxuGHWu2tee51oc-433">
          <mxGeometry width="50" height="50" relative="1" as="geometry">
            <mxPoint x="920" y="1140" as="sourcePoint" />
            <mxPoint x="970" y="1090" as="targetPoint" />
          </mxGeometry>
        </mxCell>
        <mxCell id="ksmvPKxuGHWu2tee51oc-435" value="" style="endArrow=none;html=1;rounded=0;entryX=0.5;entryY=1;entryDx=0;entryDy=0;" edge="1" parent="1" target="ksmvPKxuGHWu2tee51oc-433">
          <mxGeometry width="50" height="50" relative="1" as="geometry">
            <mxPoint x="1010" y="1190" as="sourcePoint" />
            <mxPoint x="850" y="1110" as="targetPoint" />
          </mxGeometry>
        </mxCell>
        <mxCell id="ksmvPKxuGHWu2tee51oc-436" value="" style="endArrow=none;html=1;rounded=0;" edge="1" parent="1" target="ksmvPKxuGHWu2tee51oc-437">
          <mxGeometry width="50" height="50" relative="1" as="geometry">
            <mxPoint x="1010" y="1190" as="sourcePoint" />
            <mxPoint x="1010" y="1190" as="targetPoint" />
          </mxGeometry>
        </mxCell>
        <mxCell id="ksmvPKxuGHWu2tee51oc-437" value="i -= 1" style="rounded=0;whiteSpace=wrap;html=1;" vertex="1" parent="1">
          <mxGeometry x="770" y="1160" width="120" height="60" as="geometry" />
        </mxCell>
        <mxCell id="ksmvPKxuGHWu2tee51oc-438" value="" style="endArrow=classic;html=1;rounded=0;entryX=0.5;entryY=1;entryDx=0;entryDy=0;" edge="1" parent="1" target="ksmvPKxuGHWu2tee51oc-430">
          <mxGeometry width="50" height="50" relative="1" as="geometry">
            <mxPoint x="650" y="1190" as="sourcePoint" />
            <mxPoint x="780" y="1120" as="targetPoint" />
          </mxGeometry>
        </mxCell>
        <mxCell id="ksmvPKxuGHWu2tee51oc-439" value="" style="endArrow=none;html=1;rounded=0;exitX=0;exitY=0.5;exitDx=0;exitDy=0;" edge="1" parent="1" source="ksmvPKxuGHWu2tee51oc-437">
          <mxGeometry width="50" height="50" relative="1" as="geometry">
            <mxPoint x="730" y="1170" as="sourcePoint" />
            <mxPoint x="650" y="1190" as="targetPoint" />
          </mxGeometry>
        </mxCell>
        <mxCell id="ksmvPKxuGHWu2tee51oc-440" value="" style="endArrow=none;html=1;rounded=0;" edge="1" parent="1">
          <mxGeometry width="50" height="50" relative="1" as="geometry">
            <mxPoint x="1010" y="810" as="sourcePoint" />
            <mxPoint x="1010" y="650" as="targetPoint" />
          </mxGeometry>
        </mxCell>
        <mxCell id="ksmvPKxuGHWu2tee51oc-441" value="j++" style="rounded=0;whiteSpace=wrap;html=1;" vertex="1" parent="1">
          <mxGeometry x="950" y="800" width="120" height="60" as="geometry" />
        </mxCell>
        <mxCell id="ksmvPKxuGHWu2tee51oc-442" value="" style="endArrow=classic;html=1;rounded=0;entryX=0.5;entryY=0;entryDx=0;entryDy=0;" edge="1" parent="1" source="ksmvPKxuGHWu2tee51oc-441" target="ksmvPKxuGHWu2tee51oc-433">
          <mxGeometry width="50" height="50" relative="1" as="geometry">
            <mxPoint x="1000" y="870" as="sourcePoint" />
            <mxPoint x="1050" y="820" as="targetPoint" />
          </mxGeometry>
        </mxCell>
      </root>
    </mxGraphModel>
  </diagram>
</mxfile>
